<svg width="0" height="0" class="hidden">
  <symbol fill="none" xmlns="http://www.w3.org/2000/svg" viewBox="0 0 20 20" id="arrow-down">
    <path d="M15 7.5L10 12.5L5 7.5" stroke="#FAFAFA" stroke-width="2"></path>
  </symbol>
  <symbol fill="none" xmlns="http://www.w3.org/2000/svg" viewBox="0 0 25 24" id="arrow-left">
    <path d="M20.5 12H4.50001" stroke="#3B3B3B" stroke-width="2" stroke-linecap="round" stroke-linejoin="round"></path>
    <path d="M10.5 18L4.5 12L10.5 6" stroke="#3B3B3B" stroke-width="2" stroke-linecap="round" stroke-linejoin="round"></path>
  </symbol>
  <symbol fill="none" xmlns="http://www.w3.org/2000/svg" viewBox="0 0 25 24" id="arrow-right">
    <path d="M4.5 12H20.5" stroke="#FAFAFA" stroke-width="2" stroke-linecap="round" stroke-linejoin="round"></path>
    <path d="M14.5 6L20.5 12L14.5 18" stroke="#FAFAFA" stroke-width="2" stroke-linecap="round" stroke-linejoin="round"></path>
  </symbol>
  <symbol fill="none" xmlns="http://www.w3.org/2000/svg" viewBox="0 0 20 20" id="arrow-up">
    <path d="M15 12.5L10 7.5L5 12.5" stroke="#FAFAFA" stroke-width="2"></path>
  </symbol>
  <symbol fill="none" xmlns="http://www.w3.org/2000/svg" viewBox="0 0 24 24" id="brush">
    <path d="M12.7778 14.9999L9 11.2222" stroke="#FAFAFA" stroke-width="2" stroke-linecap="round" stroke-linejoin="round"></path>
    <path d="M2 21.9999C4 21.9999 6.60801 22.3416 7.97485 20.9748C9.34168 19.608 9.34168 17.3919 7.97485 16.0251C6.60801 14.6582 4.39194 14.6582 3.0251 16.0251C1.65827 17.3919 3.0251 19.9999 2 21.9999Z" stroke="#FAFAFA" stroke-width="2" stroke-linecap="round" stroke-linejoin="round"></path>
    <path d="M7.99995 15.9999C7.50853 15.5085 7.26283 15.2628 7.12391 15.0055C6.79079 14.3885 6.80514 13.6421 7.16173 13.0383C7.31043 12.7865 7.5654 12.5504 8.07534 12.0783L17.9434 2.94117C18.8126 2.13639 20.1624 2.16234 20.9999 2.99993C21.8375 3.83752 21.8635 5.1873 21.0587 6.05647L11.9216 15.9245C11.4494 16.4345 11.2134 16.6894 10.9616 16.8381C10.3578 17.1947 9.6114 17.2091 8.99438 16.876C8.73707 16.737 8.49136 16.4913 7.99995 15.9999Z" stroke="#FAFAFA" stroke-width="2" stroke-linecap="round" stroke-linejoin="round"></path>
  </symbol>
  <symbol fill="none" xmlns="http://www.w3.org/2000/svg" viewBox="0 0 28 28" id="close">
    <path d="M21 7L7 21" stroke="#FAFAFA" stroke-width="2" stroke-linecap="round" stroke-linejoin="round"></path>
    <path d="M7 7L21 21" stroke="#FAFAFA" stroke-width="2" stroke-linecap="round" stroke-linejoin="round"></path>
  </symbol>
  <symbol fill="none" xmlns="http://www.w3.org/2000/svg" viewBox="0 0 24 24" id="hourglass">
    <path d="M18.1626 2H5.83744C5.37494 2 5 2.37494 5 2.83744C5 5.50268 6.05876 8.05876 7.94337 9.94337L9.16256 11.1626C9.28363 11.2836 9.34417 11.3442 9.3875 11.4023C9.65188 11.7569 9.65188 12.2431 9.3875 12.5977C9.34417 12.6558 9.28363 12.7164 9.16256 12.8374L7.94337 14.0566C6.05876 15.9412 5 18.4973 5 21.1626C5 21.6251 5.37494 22 5.83744 22H18.1626C18.6251 22 19 21.6251 19 21.1626C19 18.4973 17.9412 15.9412 16.0566 14.0566L14.8374 12.8374C14.7164 12.7164 14.6558 12.6558 14.6125 12.5977C14.3481 12.2431 14.3481 11.7569 14.6125 11.4023C14.6558 11.3442 14.7164 11.2836 14.8374 11.1626L16.0566 9.94337C17.9412 8.05876 19 5.50268 19 2.83744C19 2.37494 18.6251 2 18.1626 2Z" stroke="#FAFAFA" stroke-width="2" stroke-linecap="round" stroke-linejoin="round"></path>
  </symbol>
  <symbol fill="none" xmlns="http://www.w3.org/2000/svg" viewBox="0 0 84 19" id="jefferson_">
    <path d="M79.2159 9L79.3548 6.06921L76.794 7.66348L76 6.34606L78.7196 5.00955L76 3.67303L76.794 2.33652L79.3548 3.93079L79.2159 1H80.7841L80.6452 3.93079L83.206 2.33652L84 3.67303L81.2804 5.00955L84 6.34606L83.206 7.66348L80.6452 6.06921L80.7841 9H79.2159Z" fill="#FAFAFA"></path>
    <path d="M67.0858 8.55742V15H65V4.13604H67.0279V5.92403H67.1727C67.4174 5.33451 67.8004 4.86808 68.3219 4.52473C68.8433 4.17491 69.5129 4 70.3305 4C71.0644 4 71.7049 4.15548 72.2521 4.46643C72.8058 4.77091 73.2339 5.22762 73.5365 5.83657C73.8455 6.44552 74 7.20024 74 8.10071V15H71.9142V8.35336C71.9142 7.56949 71.7082 6.95406 71.2961 6.50707C70.8841 6.05359 70.324 5.82686 69.6159 5.82686C69.133 5.82686 68.6985 5.93698 68.3122 6.15724C67.9324 6.37102 67.633 6.67874 67.4142 7.08039C67.1953 7.48204 67.0858 7.97438 67.0858 8.55742Z" fill="#FAFAFA"></path>
    <path d="M58.9952 15C57.9917 15 57.1128 14.7714 56.3586 14.3143C55.6107 13.8571 55.0291 13.2159 54.6136 12.3905C54.2045 11.5651 54 10.6063 54 9.51429C54 8.40952 54.2045 7.44444 54.6136 6.61905C55.0291 5.7873 55.6107 5.14286 56.3586 4.68571C57.1128 4.22857 57.9917 4 58.9952 4C60.0051 4 60.884 4.22857 61.6318 4.68571C62.3797 5.14286 62.9613 5.7873 63.3768 6.61905C63.7923 7.44444 64 8.40952 64 9.51429C64 10.6063 63.7923 11.5651 63.3768 12.3905C62.9613 13.2159 62.3797 13.8571 61.6318 14.3143C60.884 14.7714 60.0051 15 58.9952 15ZM58.9952 13.2571C59.6536 13.2571 60.1969 13.0857 60.6251 12.7429C61.0534 12.4 61.3698 11.946 61.5743 11.381C61.7852 10.8095 61.8907 10.1873 61.8907 9.51429C61.8907 8.82857 61.7852 8.2 61.5743 7.62857C61.3698 7.05714 61.0534 6.6 60.6251 6.25714C60.1969 5.91429 59.6536 5.74286 58.9952 5.74286C58.3432 5.74286 57.8031 5.91429 57.3749 6.25714C56.953 6.6 56.6366 7.05714 56.4257 7.62857C56.2148 8.2 56.1093 8.82857 56.1093 9.51429C56.1093 10.1873 56.2148 10.8095 56.4257 11.381C56.6366 11.946 56.953 12.4 57.3749 12.7429C57.8031 13.0857 58.3432 13.2571 58.9952 13.2571Z" fill="#FAFAFA"></path>
    <path d="M52.7819 6.74286L50.8293 7.06667C50.7037 6.71111 50.4692 6.38413 50.1256 6.08571C49.7885 5.7873 49.283 5.6381 48.609 5.6381C48.0011 5.6381 47.4923 5.77143 47.0826 6.0381C46.6795 6.29841 46.478 6.63175 46.478 7.0381C46.478 7.39365 46.6134 7.68254 46.8844 7.90476C47.1619 8.12698 47.6013 8.30476 48.2026 8.4381L49.9769 8.81905C50.9879 9.04127 51.7445 9.39048 52.2467 9.86667C52.7489 10.3429 53 10.9524 53 11.6952C53 12.3365 52.8084 12.9079 52.4251 13.4095C52.0419 13.9048 51.5099 14.2952 50.8293 14.581C50.1487 14.8603 49.3623 15 48.4703 15C47.228 15 46.217 14.7429 45.4372 14.2286C44.6575 13.7143 44.1784 12.9905 44 12.0571L46.0716 11.7524C46.2037 12.273 46.4714 12.6667 46.8744 12.9333C47.2841 13.2 47.8128 13.3333 48.4604 13.3333C49.1608 13.3333 49.7225 13.1905 50.1454 12.9048C50.5749 12.619 50.7896 12.273 50.7896 11.8667C50.7896 11.1937 50.2676 10.7397 49.2236 10.5048L47.3502 10.1048C46.3128 9.87619 45.5463 9.51746 45.0507 9.02857C44.5617 8.53333 44.3172 7.91111 44.3172 7.1619C44.3172 6.53333 44.4989 5.98095 44.8623 5.50476C45.2324 5.02857 45.7379 4.66032 46.3789 4.4C47.0264 4.13333 47.7632 4 48.5892 4C49.7919 4 50.7335 4.25079 51.4141 4.75238C52.1013 5.25397 52.5573 5.91746 52.7819 6.74286Z" fill="#FAFAFA"></path>
    <path d="M38 15V4.1552H40.1005V5.89153H40.2211C40.4288 5.30952 40.7906 4.85038 41.3065 4.51411C41.8291 4.17137 42.4188 4 43.0754 4C43.2094 4 43.3668 4.00647 43.5477 4.0194C43.7353 4.02587 43.8861 4.03557 44 4.0485V6.06614C43.9129 6.04027 43.7554 6.0144 43.5276 5.98854C43.3065 5.96267 43.0821 5.94974 42.8543 5.94974C42.3384 5.94974 41.876 6.05644 41.4673 6.26984C41.0653 6.47678 40.7471 6.76455 40.5126 7.13316C40.2848 7.4953 40.1709 7.91564 40.1709 8.39418V15H38Z" fill="#FAFAFA"></path>
    <path d="M32.2668 15C31.1864 15 30.251 14.7746 29.4605 14.3238C28.67 13.873 28.0606 13.2381 27.6324 12.419C27.2108 11.5937 27 10.6317 27 9.53333C27 8.44127 27.2075 7.47937 27.6225 6.64762C28.0441 5.81587 28.6337 5.16825 29.3913 4.70476C30.1555 4.23492 31.0514 4 32.0791 4C32.7049 4 33.3109 4.09841 33.8972 4.29524C34.4835 4.49206 35.0105 4.80317 35.4783 5.22857C35.946 5.65397 36.3149 6.20635 36.585 6.88571C36.8617 7.56508 37 8.38413 37 9.34286V10.0857H28.2154V8.53333H35.8933L34.8953 9.04762C34.8953 8.39365 34.7899 7.81587 34.5791 7.31429C34.3682 6.8127 34.052 6.42222 33.6304 6.14286C33.2154 5.85714 32.6983 5.71429 32.0791 5.71429C31.4598 5.71429 30.9295 5.85714 30.4881 6.14286C30.0534 6.42857 29.7207 6.80635 29.4901 7.27619C29.2596 7.74603 29.1443 8.26032 29.1443 8.81905V9.87619C29.1443 10.6063 29.276 11.2254 29.5395 11.7333C29.803 12.2413 30.1686 12.6286 30.6364 12.8952C31.1107 13.1619 31.6607 13.2952 32.2866 13.2952C32.695 13.2952 33.0639 13.2381 33.3933 13.1238C33.7292 13.0095 34.0191 12.8381 34.2628 12.6095C34.5066 12.381 34.691 12.0984 34.8162 11.7619L36.8518 12.1333C36.6871 12.7048 36.3972 13.2063 35.9822 13.6381C35.5672 14.0698 35.0435 14.4063 34.4111 14.6476C33.7852 14.8825 33.0705 15 32.2668 15Z" fill="#FAFAFA"></path>
    <path d="M27.4388 4.25V5.93269H21V4.25H27.4388ZM22.7551 15V3C22.7551 2.33333 22.9116 1.77885 23.2245 1.33654C23.5442 0.887821 23.9592 0.554487 24.4694 0.336538C24.9864 0.112179 25.5408 0 26.1327 0C26.5884 0 26.9762 0.0352564 27.2959 0.105769C27.6156 0.176282 27.8503 0.23718 28 0.288462L27.4694 1.98077C27.3673 1.94872 27.2347 1.91346 27.0714 1.875C26.915 1.83654 26.7177 1.81731 26.4796 1.81731C25.9422 1.81731 25.5544 1.94551 25.3163 2.20192C25.0782 2.45192 24.9592 2.81731 24.9592 3.29808V15H22.7551Z" fill="#FAFAFA"></path>
    <path d="M21.4388 4.25V5.93269H15V4.25H21.4388ZM16.7551 15V3C16.7551 2.33333 16.9116 1.77885 17.2245 1.33654C17.5442 0.887821 17.9592 0.554487 18.4694 0.336538C18.9864 0.112179 19.5408 0 20.1327 0C20.5884 0 20.9762 0.0352564 21.2959 0.105769C21.6156 0.176282 21.8503 0.23718 22 0.288462L21.4694 1.98077C21.3673 1.94872 21.2347 1.91346 21.0714 1.875C20.915 1.83654 20.7177 1.81731 20.4796 1.81731C19.9422 1.81731 19.5544 1.94551 19.3163 2.20192C19.0782 2.45192 18.9592 2.81731 18.9592 3.29808V15H16.7551Z" fill="#FAFAFA"></path>
    <path d="M10.2668 15C9.18643 15 8.25099 14.7746 7.46047 14.3238C6.66996 13.873 6.06061 13.2381 5.63241 12.419C5.2108 11.5937 5 10.6317 5 9.53333C5 8.44127 5.20751 7.47937 5.62253 6.64762C6.04414 5.81587 6.63373 5.16825 7.3913 4.70476C8.15547 4.23492 9.05138 4 10.0791 4C10.7049 4 11.3109 4.09841 11.8972 4.29524C12.4835 4.49206 13.0105 4.80317 13.4783 5.22857C13.946 5.65397 14.3149 6.20635 14.585 6.88571C14.8617 7.56508 15 8.38413 15 9.34286V10.0857H6.21542V8.53333H13.8933L12.8953 9.04762C12.8953 8.39365 12.7899 7.81587 12.5791 7.31429C12.3682 6.8127 12.052 6.42222 11.6304 6.14286C11.2154 5.85714 10.6983 5.71429 10.0791 5.71429C9.45982 5.71429 8.92951 5.85714 8.48814 6.14286C8.05336 6.42857 7.72069 6.80635 7.49012 7.27619C7.25955 7.74603 7.14427 8.26032 7.14427 8.81905V9.87619C7.14427 10.6063 7.27602 11.2254 7.53953 11.7333C7.80303 12.2413 8.16864 12.6286 8.63636 12.8952C9.11067 13.1619 9.66074 13.2952 10.2866 13.2952C10.695 13.2952 11.0639 13.2381 11.3933 13.1238C11.7292 13.0095 12.0191 12.8381 12.2628 12.6095C12.5066 12.381 12.691 12.0984 12.8162 11.7619L14.8518 12.1333C14.6871 12.7048 14.3972 13.2063 13.9822 13.6381C13.5672 14.0698 13.0435 14.4063 12.4111 14.6476C11.7852 14.8825 11.0705 15 10.2668 15Z" fill="#FAFAFA"></path>
    <path d="M1.70892 4.16319H3.73709V15.6675C3.74335 16.3887 3.61815 16.9973 3.3615 17.4931C3.10485 17.989 2.72926 18.3625 2.23474 18.6136C1.74022 18.8712 1.13302 19 0.413146 19H0V17.1937H0.328638C0.816901 17.1937 1.16745 17.0617 1.38028 16.7977C1.59311 16.5336 1.70266 16.1537 1.70892 15.6579V4.16319ZM2.71361 2.50178C2.35681 2.50178 2.05321 2.37943 1.80282 2.13472C1.55243 1.89002 1.42723 1.59702 1.42723 1.25572C1.42723 0.907982 1.55243 0.611761 1.80282 0.367056C2.05321 0.122352 2.35681 0 2.71361 0C3.06416 0 3.36463 0.122352 3.61502 0.367056C3.87167 0.611761 4 0.907982 4 1.25572C4 1.59702 3.87167 1.89002 3.61502 2.13472C3.36463 2.37943 3.06416 2.50178 2.71361 2.50178Z" fill="#FAFAFA"></path>
  </symbol>
  <symbol fill="none" xmlns="http://www.w3.org/2000/svg" viewBox="0 0 28 28" id="menu">
    <path d="M3.5 9.91666H24.5M3.5 18.0833H24.5" stroke="#FAFAFA" stroke-width="2" stroke-linecap="round" stroke-linejoin="round"></path>
  </symbol>
  <symbol fill="none" xmlns="http://www.w3.org/2000/svg" viewBox="0 0 24 24" id="message-chat-circle">
    <path d="M6.09436 11.2288C6.03221 10.8282 5.99996 10.4179 5.99996 10C5.99996 5.58172 9.60525 2 14.0526 2C18.4999 2 22.1052 5.58172 22.1052 10C22.1052 10.9981 21.9213 11.9535 21.5852 12.8345C21.5154 13.0175 21.4804 13.109 21.4646 13.1804C21.4489 13.2512 21.4428 13.301 21.4411 13.3735C21.4394 13.4466 21.4493 13.5272 21.4692 13.6883L21.8717 16.9585C21.9153 17.3125 21.9371 17.4895 21.8782 17.6182C21.8266 17.731 21.735 17.8205 21.6211 17.8695C21.4911 17.9254 21.3146 17.8995 20.9617 17.8478L17.7765 17.3809C17.6101 17.3565 17.527 17.3443 17.4512 17.3448C17.3763 17.3452 17.3245 17.3507 17.2511 17.3661C17.177 17.3817 17.0823 17.4172 16.893 17.4881C16.0097 17.819 15.0524 18 14.0526 18C13.6344 18 13.2237 17.9683 12.8227 17.9073M7.63158 22C10.5965 22 13 19.5376 13 16.5C13 13.4624 10.5965 11 7.63158 11C4.66668 11 2.26316 13.4624 2.26316 16.5C2.26316 17.1106 2.36028 17.6979 2.53955 18.2467C2.61533 18.4787 2.65322 18.5947 2.66566 18.6739C2.67864 18.7567 2.68091 18.8031 2.67608 18.8867C2.67145 18.9668 2.65141 19.0573 2.61134 19.2383L2 22L4.9948 21.591C5.15827 21.5687 5.24 21.5575 5.31137 21.558C5.38652 21.5585 5.42641 21.5626 5.50011 21.5773C5.5701 21.5912 5.67416 21.6279 5.88227 21.7014C6.43059 21.8949 7.01911 22 7.63158 22Z" stroke="#FAFAFA" stroke-width="2" stroke-linecap="round" stroke-linejoin="round"></path>
  </symbol>
  <symbol fill="none" xmlns="http://www.w3.org/2000/svg" viewBox="0 0 24 24" id="user">
    <path d="M20 21C20 19.6044 20 18.9067 19.8278 18.3389C19.44 17.0605 18.4395 16.06 17.1611 15.6722C16.5933 15.5 15.8956 15.5 14.5 15.5H9.5C8.10444 15.5 7.40665 15.5 6.83886 15.6722C5.56045 16.06 4.56004 17.0605 4.17224 18.3389C4 18.9067 4 19.6044 4 21" stroke="#FAFAFA" stroke-width="2" stroke-linecap="round" stroke-linejoin="round"></path>
    <path d="M12 12C14.4853 12 16.5 9.98528 16.5 7.5C16.5 5.01472 14.4853 3 12 3C9.51472 3 7.5 5.01472 7.5 7.5C7.5 9.98528 9.51472 12 12 12Z" stroke="#FAFAFA" stroke-width="2" stroke-linecap="round" stroke-linejoin="round"></path>
  </symbol>
</svg>